<?xml version="1.0" encoding="UTF-8" standalone="no"?>
<svg
   xmlns:dc="http://purl.org/dc/elements/1.1/"
   xmlns:cc="http://creativecommons.org/ns#"
   xmlns:rdf="http://www.w3.org/1999/02/22-rdf-syntax-ns#"
   xmlns:svg="http://www.w3.org/2000/svg"
   xmlns="http://www.w3.org/2000/svg"
   xmlns:sodipodi="http://sodipodi.sourceforge.net/DTD/sodipodi-0.dtd"
   xmlns:inkscape="http://www.inkscape.org/namespaces/inkscape"
   sodipodi:docname="bye.svg"
   inkscape:version="1.1-dev (f9311a1, 2019-12-25)"
   id="svg959"
   version="1.1"
   viewBox="0 0 210 297"
   height="297mm"
   width="210mm">
  <defs
     id="defs953" />
  <sodipodi:namedview
     inkscape:window-maximized="1"
     inkscape:window-y="25"
     inkscape:window-x="0"
     inkscape:window-height="998"
     inkscape:window-width="1792"
     showgrid="false"
     inkscape:document-rotation="0"
     inkscape:current-layer="layer1"
     inkscape:document-units="mm"
     inkscape:cy="560"
     inkscape:cx="400"
     inkscape:zoom="0.35"
     inkscape:pageshadow="2"
     inkscape:pageopacity="0.0"
     borderopacity="1.0"
     bordercolor="#666666"
     pagecolor="#ffffff"
     id="base" />
  <metadata
     id="metadata956">
    <rdf:RDF>
      <cc:Work
         rdf:about="">
        <dc:format>image/svg+xml</dc:format>
        <dc:type
           rdf:resource="http://purl.org/dc/dcmitype/StillImage" />
        <dc:title></dc:title>
      </cc:Work>
    </rdf:RDF>
  </metadata>
  <g
     id="layer1"
     inkscape:groupmode="layer"
     inkscape:label="Layer 1">
    <text
       id="text963"
       y="29.482141"
       x="37.041664"
       style="font-style:normal;font-weight:normal;font-size:10.5833px;line-height:1.25;font-family:sans-serif;fill:#000000;fill-opacity:1;stroke:none;stroke-width:0.264583"
       xml:space="preserve"><tspan
         style="stroke-width:0.264583"
         y="29.482141"
         x="37.041664"
         id="tspan961"
         sodipodi:role="line">bye gushi, this is graphicx.</tspan></text>
    <rect
       y="50.648811"
       x="27.214285"
       height="30.994047"
       width="42.333332"
       id="rect1001"
       style="fill:#ff0000;stroke-width:0.264583" />
    <path
       inkscape:transform-center-y="-2.4999354"
       inkscape:transform-center-x="0.15048788"
       d="m 81.642862,91.470234 2.788361,-18.17044 -13.387608,-12.598088 18.142766,-2.963085 7.844495,-16.625395 8.424484,16.339152 18.23577,2.323028 -12.93615,13.061237 3.42584,18.061106 -16.419467,-8.266865 z"
       inkscape:randomized="0"
       inkscape:rounded="0"
       inkscape:flatsided="false"
       sodipodi:arg2="2.8098408"
       sodipodi:arg1="2.1815223"
       sodipodi:r2="13.841362"
       sodipodi:r1="27.682722"
       sodipodi:cy="68.791664"
       sodipodi:cx="97.51786"
       sodipodi:sides="5"
       id="path1003"
       style="fill:#ff0000;stroke-width:0.264583"
       sodipodi:type="star" />
    <path
       inkscape:connector-curvature="0"
       id="path1005"
       d="m 155.72619,61.988093 c -9.8204,1.636734 -25.19749,1.093005 -6.04762,23.434524 2.78781,3.252452 6.41872,-7.071659 6.04762,-11.339285 -0.27955,-3.214841 -5.03968,-4.031747 -7.55953,-6.047618"
       style="fill:none;stroke:#000000;stroke-width:0.264583px;stroke-linecap:butt;stroke-linejoin:miter;stroke-opacity:1" />
    <path
       inkscape:connector-curvature="0"
       id="path1007"
       d="M 148.92262,92.22619 54.428572,127"
       style="fill:none;stroke:#000000;stroke-width:0.264583px;stroke-linecap:butt;stroke-linejoin:miter;stroke-opacity:1" />
    <path
       inkscape:connector-curvature="0"
       d="m 47.845942,107.25876 c 1.217846,0.23616 2.455318,0.38724 3.653536,0.70847 1.65318,0.4432 3.217117,1.19788 4.885309,1.58072 7.981625,1.83173 16.23604,2.27707 24.34354,3.2062 2.552962,0.29257 5.095258,0.67173 7.642886,1.00759 2.369524,0.39291 4.731129,0.83699 7.108571,1.17871 4.424905,0.63603 8.344466,1.20792 12.815416,0.70291 6.7448,-0.76185 12.42521,-3.81812 17.67231,-8.46526 0.6374,-0.56452 -1.19445,-1.21373 -1.79168,-1.82059 -1.19677,-0.0725 -2.39746,-0.0964 -3.5903,-0.21737 -2.00546,-0.20332 -4.57463,0.1147 -5.37668,-2.4018 -0.2451,-0.769 -0.12585,-1.72261 0.31098,-2.4013 0.85417,-1.327053 2.23716,-2.226808 3.3731,-3.322395 1.35842,-1.310145 2.73975,-2.596308 4.10963,-3.894463 0.89909,-1.35991 1.49812,-2.9753 2.69727,-4.079732 1.82676,-1.682485 4.11622,-2.780784 6.20694,-4.121208 0.45636,-0.292589 -1.79907,1.18989 -1.301,0.975852 2.38514,-1.024988 4.64003,-2.331812 6.9956,-3.423041 4.73556,-2.193767 5.98804,-2.587765 10.54756,-4.315894 0.80747,-0.20284 7.11251,-2.53129 7.61518,-0.458761 0.0793,0.327083 -0.0629,0.670192 -0.0943,1.005287 0,0 9.91097,-5.110686 9.91097,-5.110686 v 0 c -0.15867,-1.147485 -0.0372,-2.177863 -1.20906,-2.908494 -1.98842,-1.239707 -6.06404,0.50047 -7.87105,0.92678 -6.11838,2.349191 -12.24361,4.805691 -18.01777,7.932534 -2.78378,1.507479 -17.79437,9.349047 -22.54326,13.758873 -1.13653,1.055378 -1.77244,2.545686 -2.65866,3.81853 -1.55803,1.496205 -6.5476,5.954798 -7.52644,8.148108 -0.42482,0.95191 -0.28706,2.1619 0.11117,3.12524 1.54501,3.73749 5.82185,3.11335 9.00362,3.02554 2.48614,-0.60217 6.50774,-1.49862 7.44605,-3.3899 0.85473,-1.7228 -3.68167,1.17123 -5.58478,1.44827 -6.71407,0.97739 -13.42203,-0.61625 -20.013883,-1.61519 -2.572607,-0.33228 -5.139658,-0.71083 -7.717816,-0.99684 -7.944427,-0.88131 -16.057991,-1.23323 -23.835646,-3.25965 -1.64289,-0.42804 -3.175386,-1.20397 -4.779991,-1.75855 -1.236581,-0.42738 -2.494272,-0.79104 -3.741407,-1.18656 0,0 -8.795925,6.59807 -8.795925,6.59807 z"
       id="path1009"
       style="fill:#ff0000;stroke-width:0.264583" />
    <circle
       r="0.3775982"
       cy="189.74405"
       cx="89.202377"
       style="fill:#ff0000;stroke:#000000"
       id="path1011" />
  </g>
</svg>
